<?xml version="1.0" standalone="no"?>
<!DOCTYPE svg PUBLIC "-//W3C//DTD SVG 20010904//EN"
 "http://www.w3.org/TR/2001/REC-SVG-20010904/DTD/svg10.dtd">
<svg version="1.0" xmlns="http://www.w3.org/2000/svg"
 width="260.000000pt" height="260.000000pt" viewBox="0 0 260.000000 260.000000"
 preserveAspectRatio="xMidYMid meet">
<metadata>
Created by potrace 1.11, written by Peter Selinger 2001-2013
</metadata>
<g transform="translate(0.000000,260.000000) scale(0.100000,-0.100000)"
fill="#000000" stroke="none">
<path d="M330 1320 l0 -1270 223 2 222 3 6 115 c3 63 6 110 7 104 4 -24 99
-119 156 -156 153 -99 427 -129 649 -72 75 19 207 80 274 125 432 295 535 957
217 1389 -163 222 -401 350 -680 367 -265 15 -494 -74 -606 -237 -16 -24 -17
-1 -17 438 l-1 462 -225 0 -225 0 0 -1270z m1105 185 c329 -86 492 -475 333
-797 -40 -81 -153 -195 -228 -231 -314 -151 -679 9 -776 338 -24 81 -24 230 0
310 56 189 200 330 386 379 73 19 212 20 285 1z"/>
</g>
</svg>
